PathFileType	4	(X/Y/Z)	/Users/mathieubourgeois/Desktop/Analyse/Traitement/Sujet_05/Data/Transformed_Sujet_05_velo_60.trc
DataRate	CameraRate	NumFrames	NumMarkers	Units	OrigDataRate	OrigDataStartFrame	OrigNumFrames
120.000000	120.000000	5	36	mm	120.000000	240	1925
Frame#	Time	RFHD			RANE			STRN			LANI			LKNE			T10			RHUM			RWRB			C7			LFWT			LTOE			RTOE			LWRA			LBWT			RBWT			RFWT			LKNI			RKNI			RKNE			LANE			RANI			LHEE			RHEE			LHUM			LRAD			RRAD			RWRA			LWRB			LFHD			LBHD			RBHD			RSHO			LSHO			CLAV			LCAR			RCAR			
		X1	Y1	Z1	X2	Y2	Z2	X3	Y3	Z3	X4	Y4	Z4	X5	Y5	Z5	X6	Y6	Z6	X7	Y7	Z7	X8	Y8	Z8	X9	Y9	Z9	X10	Y10	Z10	X11	Y11	Z11	X12	Y12	Z12	X13	Y13	Z13	X14	Y14	Z14	X15	Y15	Z15	X16	Y16	Z16	X17	Y17	Z17	X18	Y18	Z18	X19	Y19	Z19	X20	Y20	Z20	X21	Y21	Z21	X22	Y22	Z22	X23	Y23	Z23	X24	Y24	Z24	X25	Y25	Z25	X26	Y26	Z26	X27	Y27	Z27	X28	Y28	Z28	X29	Y29	Z29	X30	Y30	Z30	X31	Y31	Z31	X32	Y32	Z32	X33	Y33	Z33	X34	Y34	Z34	X35	Y35	Z35	X36	Y36	Z36	

241	2	135.6502380371094	1329.31396484375	112.0455245971679	-365.1012573242188	323.3293762207031	188.9191436767577	-221.9005584716797	1154.431884765625	32.54062271118154	-124.080078125	537.92431640625	-55.78773117065435	-57.58460998535154	908.5786743164062	-150.3319854736329	-343.5127563476562	1361.952758789062	48.64490127563464	18.6848449707031	1027.544555664062	203.8735961914062	241.5334014892578	890.3336791992188	248.7897644042968	-106.6932983398438	1415.127685546875	33.09297180175771	-376.7788696289062	1086.220336914062	-72.78224182128918	23.51058578491212	441.4263305664062	-99.01841735839847	-238.6166534423828	167.0965118408203	154.5384521484375	271.1369018554688	934.01904296875	-147.7866668701172	-544.9249267578125	1105.603759765625	-6.047764778137341	-532.1473388671875	1109.149291992188	130.5212249755858	-367.1598205566406	1067.4208984375	172.6183166503905	-44.77236938476562	881.7669067382812	-46.75399780273444	-187.9947052001953	637.7677001953125	97.61285400390618	-188.1117553710938	680.6468505859375	204.1211853027343	-154.9102630615234	543.6704711914062	-134.3252868652344	-329.7645874023438	315.2379760742188	108.2218780517578	-211.0569305419922	508.6640625	-88.40756225585943	-427.0148315429688	324.8012390136719	143.286895751953	14.131160736084	1043.124145507812	-148.415512084961	61.3322219848633	1073.54833984375	-192.8572998046876	59.13544464111325	1061.530883789062	254.191909790039	272.4721374511719	933.8969116210938	196.7379302978515	236.7949523925782	885.48974609375	-181.5695953369141	145.2518768310547	1323.610595703125	-34.91468811035162	33.53617477416993	1427.925537109375	-52.16820907592781	22.397403717041	1457.399169921875	79.83800506591788	-34.24058914184572	1318.886474609375	174.9856872558593	-71.7556915283203	1329.906860351562	-120.3480911254884	-97.28214263916016	1270.843994140625	33.95910644531241	314.74609375	925.7551879882812	-224.7569885253907	318.9934082031249	927.9203491210938	285.7445373535156	
242	2.008333333333333	134.9883880615234	1328.705932617188	113.1425704956054	-369.7661743164062	331.0078125	188.4735717773437	-222.2962799072266	1154.388549804688	32.40428161621084	-120.46435546875	529.2535400390625	-55.51782989501958	-58.76431655883787	902.322265625	-150.4343872070313	-343.8143615722656	1361.935668945312	48.3628120422362	18.46906471252439	1027.290649414062	203.810073852539	241.4790802001953	890.3480834960938	248.7634887695312	-106.9394683837891	1414.970458984375	33.46833038330068	-376.671630859375	1085.581665039062	-73.50718688964855	29.84614753723146	435.6455078125	-98.85108184814456	-245.3169708251953	172.4838562011719	154.2692413330078	271.1369323730469	933.9620971679688	-147.7783203125	-545.1871337890625	1105.2333984375	-6.794935226440564	-532.7060546875	1109.099487304688	129.7478790283202	-367.6876831054688	1067.905517578125	172.1419525146483	-45.98415374755859	875.283447265625	-46.75614166259772	-184.9823150634766	640.8009643554688	98.0036544799804	-184.9254608154297	683.524169921875	204.6164855957031	-150.1224212646484	535.0387573242188	-134.7881011962891	-334.6202697753906	322.1303100585938	107.829002380371	-205.7912139892578	499.0463256835938	-88.85566711425787	-431.7500305175781	333.3325805664062	142.8240509033202	14.08243846893312	1043.053588867188	-148.5094146728516	61.35949707031252	1073.560668945312	-192.8133850097657	58.79946517944333	1061.241943359375	254.1951599121093	272.3003845214844	934.0230712890625	196.7353515625	236.7911529541016	885.4555053710938	-181.5821533203125	145.1095428466797	1323.2744140625	-33.96448516845709	33.49574661254884	1427.708618164062	-51.43037414550789	21.97978973388671	1457.017822265625	80.66082763671866	-34.85160827636721	1318.541015625	175.4418640136718	-71.69763946533202	1329.810546875	-120.0415191650392	-97.55682373046875	1270.665771484375	34.21956253051749	314.7397155761719	925.779541015625	-224.7708435058594	319.1668090820312	927.706298828125	285.4685363769531	
243	2.016666666666667	134.6444549560547	1328.415893554688	113.9921264648437	-374.0045471191406	339.0581665039062	188.0892333984374	-222.8796234130859	1154.349243164062	32.27775192260732	-112.6368865966797	520.349609375	-57.12853240966801	-60.38621902465818	896.048095703125	-150.5199432373047	-344.108642578125	1361.949951171875	47.99995803832995	18.24492263793943	1027.047607421875	203.7786560058593	241.0557708740234	890.3296508789062	249.2035675048828	-107.14208984375	1414.824951171875	33.89699935913076	-376.5082702636719	1085.12353515625	-74.31731414794933	35.95849609375001	429.7669067382812	-98.75920867919925	-251.426513671875	178.7885437011719	154.7144317626953	271.1524658203125	933.8944091796875	-147.7581176757813	-545.4302978515625	1104.85205078125	-7.618194103241101	-533.2158813476562	1109.0771484375	128.9053802490233	-368.2210998535156	1068.458129882812	171.5834960937499	-46.83280944824218	867.41748046875	-47.58669662475592	-181.9379272460938	644.0298461914062	98.46472167968743	-181.5235900878907	686.5859985351562	205.1338195800781	-145.7490234375	525.9715576171875	-135.2056579589844	-339.1343688964844	329.4085083007812	107.4712829589843	-200.7455596923828	489.1905212402344	-89.38722991943365	-436.2265319824219	342.3748168945312	142.5358581542968	14.08109855651857	1042.973999023438	-148.5600738525391	61.42394256591799	1073.53515625	-192.7707824707032	58.53137207031247	1061.000732421875	254.2083740234374	272.259521484375	933.9951171875	196.6739044189453	236.8185119628907	885.3992919921875	-181.6042938232422	145.0554351806641	1322.947631835938	-32.93161010742193	33.56507873535157	1427.512329101562	-50.64769363403328	21.49659347534179	1456.430053710938	81.58938598632804	-35.46196746826174	1318.119995117188	175.8086853027343	-71.54261016845702	1329.715698242188	-119.6696166992188	-97.81912994384766	1270.52685546875	34.52134704589835	314.7484741210938	925.8017578125	-224.776840209961	318.8281249999999	928.0128784179688	285.6825561523438	
244	2.025	134.1620178222656	1328.002563476562	115.0863342285156	-377.8027648925781	347.4087524414062	187.7241821289062	-223.3328094482422	1154.350830078125	32.1420783996581	-107.649528503418	510.49658203125	-56.36802673339848	-61.78515243530271	888.5936279296875	-150.0632324218751	-344.3418273925781	1361.965698242188	47.63019561767565	18.04706192016599	1026.824951171875	203.7017211914062	241.1031036376953	890.0623168945312	248.9076995849609	-107.2706756591797	1414.714721679688	34.29127883911123	-376.2232360839844	1084.672485351562	-75.18699645996105	41.4396209716797	423.2207946777344	-98.68919372558597	-257.5292663574219	185.3614654541016	155.1569519042968	271.2054748535156	933.7964477539062	-147.7375946044922	-545.544189453125	1104.449096679688	-8.545311927795545	-533.7022094726562	1109.07470703125	128.0142211914061	-368.68505859375	1069.05810546875	170.9483489990233	-48.99576568603515	861.9354248046875	-46.10627746582037	-178.5982208251953	647.4088745117188	98.98326110839837	-177.9738159179688	689.8731689453125	205.6521759033203	-141.6966705322265	516.596435546875	-135.5119781494141	-342.9924926757812	336.9693908691406	107.1208038330078	-196.1681671142578	478.7539672851562	-89.85234069824224	-439.8578796386719	351.01513671875	141.4181060791015	14.13899421691896	1042.8896484375	-148.6178283691407	61.52424240112307	1073.4912109375	-192.7177734375001	58.17863464355466	1060.981323242188	254.3122558593749	272.1507263183594	934.024658203125	196.6395874023437	236.8477172851563	885.3117065429688	-181.6332702636719	145.0346984863281	1322.664306640625	-31.81637382507331	33.6838493347168	1427.325317382812	-49.78915405273445	21.22146415710448	1456.160888671875	82.41330718994132	-36.06776428222658	1317.712036132812	176.3095703124999	-71.32350158691405	1329.635498046875	-119.3136291503907	-97.982177734375	1270.418579101562	34.80935287475577	314.8197631835938	925.7160034179688	-224.7181243896485	319.0073547363281	927.7937622070312	285.4037780761719	
245	2.033333333333333	133.7377471923828	1327.638305664062	116.2573318481445	-381.2399597167969	356.0756530761719	187.4048614501952	-223.6621551513672	1154.403686523438	32.00363159179678	-106.4999847412109	502.154541015625	-56.96686553955082	-63.43312835693357	881.0789184570312	-150.1832427978516	-344.5245971679688	1361.99267578125	47.280303955078	17.88427352905271	1026.619750976562	203.6722717285156	241.0782775878906	890.0658569335938	248.8201141357422	-107.3542556762695	1414.63427734375	34.7833366394042	-375.9227294921875	1084.313110351562	-76.05658721923839	46.41704559326173	416.10888671875	-98.51516723632815	-263.3470764160156	192.3203582763672	155.3864440917968	271.2822875976562	933.6708374023438	-147.7291107177735	-545.6608276367188	1104.093383789062	-9.502611160278455	-534.1295776367188	1109.118408203125	127.0307998657225	-369.1074523925781	1069.676025390625	170.3245544433593	-49.72956466674804	854.6393432617188	-46.37504577636724	-175.2259216308594	651.0057983398438	99.52899169921868	-174.2802124023438	693.4229736328125	206.2779235839843	-138.1371459960937	506.904296875	-135.7712707519532	-346.5967712402344	344.9520568847656	106.8630828857421	-191.8380432128906	468.7345275878906	-90.15238952636724	-443.2919616699219	360.5561828613281	141.0218048095702	14.25037860870363	1042.865112304688	-148.6494903564454	61.68138885498049	1073.473999023438	-192.6166992187501	57.91833114624021	1060.739990234375	254.3298950195312	272.0836181640625	934.0601806640625	196.6089630126953	236.9271392822266	885.1890258789062	-181.6440887451172	145.0396423339844	1322.387084960938	-30.61790847778327	33.85635375976563	1427.16552734375	-48.90545654296883	20.97500801086425	1455.896118164062	83.30702972412101	-36.58545303344729	1317.369018554688	176.7362060546874	-71.07885742187499	1329.598876953125	-118.9212493896485	-98.05516815185547	1270.351440429688	35.11991500854483	314.852294921875	925.7149047851562	-224.7272491455078	318.9694213867187	927.8118286132812	285.3519897460938	
